<svg width="34" height="33" viewBox="0 0 34 33" fill="none" xmlns="http://www.w3.org/2000/svg">
<path d="M11.4371 19.6164C11.5941 21.5841 13.1514 23.1165 15.9439 23.298V24.75H17.1832V23.2877C20.0748 23.0856 21.7643 21.5428 21.7643 19.3029C21.7643 17.2673 20.4714 16.2174 18.1601 15.6729L17.1832 15.4419V11.4881C18.4224 11.6284 19.2114 12.3049 19.4015 13.2413H21.5743C21.4173 11.3458 19.7898 9.86287 17.1832 9.702V8.25H15.9439V9.73294C13.4757 9.97425 11.7924 11.4572 11.7924 13.5547C11.7924 15.411 13.044 16.5908 15.1239 17.0754L15.9439 17.2776V21.4727C14.6737 21.2809 13.833 20.5858 13.643 19.6164H11.4371ZM15.9336 15.1491C14.715 14.8665 14.054 14.2911 14.054 13.4248C14.054 12.4554 14.7666 11.7294 15.9439 11.517V15.147L15.9336 15.1491ZM17.3629 17.6096C18.8438 17.952 19.5275 18.5068 19.5275 19.4865C19.5275 20.6044 18.6765 21.3716 17.1832 21.5119V17.5684L17.3629 17.6096Z" fill="#00897B"/>
<path d="M16.6007 30.9375C12.7662 30.9375 9.08871 29.4164 6.37728 26.7089C3.66586 24.0013 2.14259 20.3291 2.14259 16.5C2.14259 12.6709 3.66586 8.9987 6.37728 6.29115C9.08871 3.58359 12.7662 2.0625 16.6007 2.0625C20.4353 2.0625 24.1127 3.58359 26.8242 6.29115C29.5356 8.9987 31.0588 12.6709 31.0588 16.5C31.0588 20.3291 29.5356 24.0013 26.8242 26.7089C24.1127 29.4164 20.4353 30.9375 16.6007 30.9375ZM16.6007 33C20.983 33 25.1859 31.2616 28.2846 28.1673C31.3834 25.0729 33.1243 20.8761 33.1243 16.5C33.1243 12.1239 31.3834 7.92709 28.2846 4.83274C25.1859 1.73839 20.983 0 16.6007 0C12.2184 0 8.01556 1.73839 4.91679 4.83274C1.81802 7.92709 0.0771484 12.1239 0.0771484 16.5C0.0771484 20.8761 1.81802 25.0729 4.91679 28.1673C8.01556 31.2616 12.2184 33 16.6007 33Z" fill="#00897B"/>
<path d="M16.6007 27.8438C13.5879 27.8438 10.6984 26.6486 8.56802 24.5212C6.43761 22.3939 5.24077 19.5085 5.24077 16.5C5.24077 13.4915 6.43761 10.6061 8.56802 8.47876C10.6984 6.35139 13.5879 5.15625 16.6007 5.15625C19.6136 5.15625 22.503 6.35139 24.6334 8.47876C26.7638 10.6061 27.9607 13.4915 27.9607 16.5C27.9607 19.5085 26.7638 22.3939 24.6334 24.5212C22.503 26.6486 19.6136 27.8438 16.6007 27.8438ZM16.6007 28.875C18.2282 28.875 19.8396 28.5549 21.3432 27.933C22.8467 27.3111 24.2129 26.3996 25.3637 25.2504C26.5144 24.1013 27.4273 22.7371 28.0501 21.2357C28.6729 19.7343 28.9934 18.1251 28.9934 16.5C28.9934 14.8749 28.6729 13.2657 28.0501 11.7643C27.4273 10.2629 26.5144 8.89868 25.3637 7.74955C24.2129 6.60043 22.8467 5.68889 21.3432 5.06699C19.8396 4.44509 18.2282 4.125 16.6007 4.125C13.314 4.125 10.1619 5.42879 7.83777 7.74955C5.5137 10.0703 4.20804 13.2179 4.20804 16.5C4.20804 19.7821 5.5137 22.9297 7.83777 25.2504C10.1619 27.5712 13.314 28.875 16.6007 28.875Z" fill="#00897B"/>
</svg>
