<svg width="43" height="31" viewBox="0 0 43 31" fill="none" xmlns="http://www.w3.org/2000/svg">
<path d="M25.3437 3H8.65322C6.70878 3 5.73656 3 4.96879 3.31667C4.46258 3.5263 4.00268 3.83345 3.61536 4.22058C3.22803 4.60771 2.92087 5.06723 2.71141 5.57292C2.39429 6.3375 2.39429 7.30833 2.39429 9.25C4.05426 9.25 5.64624 9.90848 6.82002 11.0806C7.99379 12.2527 8.65322 13.8424 8.65322 15.5C8.65322 17.1576 7.99379 18.7473 6.82002 19.9194C5.64624 21.0915 4.05426 21.75 2.39429 21.75C2.39429 23.6917 2.39429 24.6625 2.71141 25.4271C2.92087 25.9328 3.22803 26.3923 3.61536 26.7794C4.00268 27.1666 4.46258 27.4737 4.96879 27.6833C5.73656 28 6.70878 28 8.65322 28H25.3437M25.3437 3H33.6889C35.6334 3 36.6056 3 37.3713 3.31667C37.8779 3.52607 38.3382 3.83312 38.7259 4.22026C39.1136 4.6074 39.421 5.06704 39.6307 5.57292C39.9479 6.3375 39.9479 7.30833 39.9479 9.25C38.2879 9.25 36.6959 9.90848 35.5221 11.0806C34.3483 12.2527 33.6889 13.8424 33.6889 15.5C33.6889 17.1576 34.3483 18.7473 35.5221 19.9194C36.6959 21.0915 38.2879 21.75 39.9479 21.75C39.9479 23.6917 39.9479 24.6625 39.6307 25.4271C39.421 25.933 39.1136 26.3926 38.7259 26.7797C38.3382 27.1669 37.8779 27.4739 37.3713 27.6833C36.6056 28 35.6334 28 33.6889 28H25.3437M25.3437 3V28" stroke="#00897B" stroke-width="4.16667" stroke-linecap="round" stroke-linejoin="round"/>
</svg>
